<?xml version="1.0" encoding="utf-8"?>
<svg xmlns="http://www.w3.org/2000/svg" xmlns:xlink="http://www.w3.org/1999/xlink" width="600" height="400" viewBox="0 0 2400 1600">
<defs>
  <clipPath id="clip160">
    <rect x="0" y="0" width="2400" height="1600"/>
  </clipPath>
</defs>
<path clip-path="url(#clip160)" d="
M0 1600 L2400 1600 L2400 0 L0 0  Z
  " fill="#ffffff" fill-rule="evenodd" fill-opacity="1"/>
<defs>
  <clipPath id="clip161">
    <rect x="480" y="0" width="1681" height="1600"/>
  </clipPath>
</defs>
<path clip-path="url(#clip160)" d="
M193.936 1486.45 L2352.76 1486.45 L2352.76 47.2441 L193.936 47.2441  Z
  " fill="#ffffff" fill-rule="evenodd" fill-opacity="1"/>
<defs>
  <clipPath id="clip162">
    <rect x="193" y="47" width="2160" height="1440"/>
  </clipPath>
</defs>
<polyline clip-path="url(#clip162)" style="stroke:#000000; stroke-linecap:butt; stroke-linejoin:round; stroke-width:2; stroke-opacity:0.1; fill:none" points="
  234.463,1486.45 234.463,47.2441 
  "/>
<polyline clip-path="url(#clip162)" style="stroke:#000000; stroke-linecap:butt; stroke-linejoin:round; stroke-width:2; stroke-opacity:0.1; fill:none" points="
  748.761,1486.45 748.761,47.2441 
  "/>
<polyline clip-path="url(#clip162)" style="stroke:#000000; stroke-linecap:butt; stroke-linejoin:round; stroke-width:2; stroke-opacity:0.1; fill:none" points="
  1263.06,1486.45 1263.06,47.2441 
  "/>
<polyline clip-path="url(#clip162)" style="stroke:#000000; stroke-linecap:butt; stroke-linejoin:round; stroke-width:2; stroke-opacity:0.1; fill:none" points="
  1777.36,1486.45 1777.36,47.2441 
  "/>
<polyline clip-path="url(#clip162)" style="stroke:#000000; stroke-linecap:butt; stroke-linejoin:round; stroke-width:2; stroke-opacity:0.1; fill:none" points="
  2291.66,1486.45 2291.66,47.2441 
  "/>
<polyline clip-path="url(#clip160)" style="stroke:#000000; stroke-linecap:butt; stroke-linejoin:round; stroke-width:4; stroke-opacity:1; fill:none" points="
  193.936,1486.45 2352.76,1486.45 
  "/>
<polyline clip-path="url(#clip160)" style="stroke:#000000; stroke-linecap:butt; stroke-linejoin:round; stroke-width:4; stroke-opacity:1; fill:none" points="
  234.463,1486.45 234.463,1467.55 
  "/>
<polyline clip-path="url(#clip160)" style="stroke:#000000; stroke-linecap:butt; stroke-linejoin:round; stroke-width:4; stroke-opacity:1; fill:none" points="
  748.761,1486.45 748.761,1467.55 
  "/>
<polyline clip-path="url(#clip160)" style="stroke:#000000; stroke-linecap:butt; stroke-linejoin:round; stroke-width:4; stroke-opacity:1; fill:none" points="
  1263.06,1486.45 1263.06,1467.55 
  "/>
<polyline clip-path="url(#clip160)" style="stroke:#000000; stroke-linecap:butt; stroke-linejoin:round; stroke-width:4; stroke-opacity:1; fill:none" points="
  1777.36,1486.45 1777.36,1467.55 
  "/>
<polyline clip-path="url(#clip160)" style="stroke:#000000; stroke-linecap:butt; stroke-linejoin:round; stroke-width:4; stroke-opacity:1; fill:none" points="
  2291.66,1486.45 2291.66,1467.55 
  "/>
<path clip-path="url(#clip160)" d="M234.463 1517.37 Q230.852 1517.37 229.023 1520.93 Q227.217 1524.47 227.217 1531.6 Q227.217 1538.71 229.023 1542.27 Q230.852 1545.82 234.463 1545.82 Q238.097 1545.82 239.903 1542.27 Q241.731 1538.71 241.731 1531.6 Q241.731 1524.47 239.903 1520.93 Q238.097 1517.37 234.463 1517.37 M234.463 1513.66 Q240.273 1513.66 243.328 1518.27 Q246.407 1522.85 246.407 1531.6 Q246.407 1540.33 243.328 1544.94 Q240.273 1549.52 234.463 1549.52 Q228.653 1549.52 225.574 1544.94 Q222.518 1540.33 222.518 1531.6 Q222.518 1522.85 225.574 1518.27 Q228.653 1513.66 234.463 1513.66 Z" fill="#000000" fill-rule="evenodd" fill-opacity="1" /><path clip-path="url(#clip160)" d="M728.032 1544.91 L744.352 1544.91 L744.352 1548.85 L722.407 1548.85 L722.407 1544.91 Q725.069 1542.16 729.653 1537.53 Q734.259 1532.88 735.44 1531.53 Q737.685 1529.01 738.565 1527.27 Q739.467 1525.51 739.467 1523.82 Q739.467 1521.07 737.523 1519.33 Q735.602 1517.6 732.5 1517.6 Q730.301 1517.6 727.847 1518.36 Q725.417 1519.13 722.639 1520.68 L722.639 1515.95 Q725.463 1514.82 727.917 1514.24 Q730.37 1513.66 732.407 1513.66 Q737.778 1513.66 740.972 1516.35 Q744.166 1519.03 744.166 1523.52 Q744.166 1525.65 743.356 1527.57 Q742.569 1529.47 740.463 1532.07 Q739.884 1532.74 736.782 1535.95 Q733.68 1539.15 728.032 1544.91 Z" fill="#000000" fill-rule="evenodd" fill-opacity="1" /><path clip-path="url(#clip160)" d="M754.213 1514.29 L772.569 1514.29 L772.569 1518.22 L758.495 1518.22 L758.495 1526.7 Q759.514 1526.35 760.532 1526.19 Q761.551 1526 762.569 1526 Q768.356 1526 771.736 1529.17 Q775.115 1532.34 775.115 1537.76 Q775.115 1543.34 771.643 1546.44 Q768.171 1549.52 761.852 1549.52 Q759.676 1549.52 757.407 1549.15 Q755.162 1548.78 752.754 1548.04 L752.754 1543.34 Q754.838 1544.47 757.06 1545.03 Q759.282 1545.58 761.759 1545.58 Q765.764 1545.58 768.102 1543.48 Q770.439 1541.37 770.439 1537.76 Q770.439 1534.15 768.102 1532.04 Q765.764 1529.94 761.759 1529.94 Q759.884 1529.94 758.009 1530.35 Q756.157 1530.77 754.213 1531.65 L754.213 1514.29 Z" fill="#000000" fill-rule="evenodd" fill-opacity="1" /><path clip-path="url(#clip160)" d="M1237.76 1514.29 L1256.12 1514.29 L1256.12 1518.22 L1242.04 1518.22 L1242.04 1526.7 Q1243.06 1526.35 1244.08 1526.19 Q1245.1 1526 1246.12 1526 Q1251.9 1526 1255.28 1529.17 Q1258.66 1532.34 1258.66 1537.76 Q1258.66 1543.34 1255.19 1546.44 Q1251.72 1549.52 1245.4 1549.52 Q1243.22 1549.52 1240.95 1549.15 Q1238.71 1548.78 1236.3 1548.04 L1236.3 1543.34 Q1238.38 1544.47 1240.61 1545.03 Q1242.83 1545.58 1245.31 1545.58 Q1249.31 1545.58 1251.65 1543.48 Q1253.99 1541.37 1253.99 1537.76 Q1253.99 1534.15 1251.65 1532.04 Q1249.31 1529.94 1245.31 1529.94 Q1243.43 1529.94 1241.56 1530.35 Q1239.7 1530.77 1237.76 1531.65 L1237.76 1514.29 Z" fill="#000000" fill-rule="evenodd" fill-opacity="1" /><path clip-path="url(#clip160)" d="M1277.87 1517.37 Q1274.26 1517.37 1272.43 1520.93 Q1270.63 1524.47 1270.63 1531.6 Q1270.63 1538.71 1272.43 1542.27 Q1274.26 1545.82 1277.87 1545.82 Q1281.51 1545.82 1283.31 1542.27 Q1285.14 1538.71 1285.14 1531.6 Q1285.14 1524.47 1283.31 1520.93 Q1281.51 1517.37 1277.87 1517.37 M1277.87 1513.66 Q1283.68 1513.66 1286.74 1518.27 Q1289.82 1522.85 1289.82 1531.6 Q1289.82 1540.33 1286.74 1544.94 Q1283.68 1549.52 1277.87 1549.52 Q1272.06 1549.52 1268.99 1544.94 Q1265.93 1540.33 1265.93 1531.6 Q1265.93 1522.85 1268.99 1518.27 Q1272.06 1513.66 1277.87 1513.66 Z" fill="#000000" fill-rule="evenodd" fill-opacity="1" /><path clip-path="url(#clip160)" d="M1751.21 1514.29 L1773.44 1514.29 L1773.44 1516.28 L1760.89 1548.85 L1756 1548.85 L1767.81 1518.22 L1751.21 1518.22 L1751.21 1514.29 Z" fill="#000000" fill-rule="evenodd" fill-opacity="1" /><path clip-path="url(#clip160)" d="M1782.6 1514.29 L1800.96 1514.29 L1800.96 1518.22 L1786.88 1518.22 L1786.88 1526.7 Q1787.9 1526.35 1788.92 1526.19 Q1789.94 1526 1790.96 1526 Q1796.75 1526 1800.12 1529.17 Q1803.5 1532.34 1803.5 1537.76 Q1803.5 1543.34 1800.03 1546.44 Q1796.56 1549.52 1790.24 1549.52 Q1788.06 1549.52 1785.8 1549.15 Q1783.55 1548.78 1781.14 1548.04 L1781.14 1543.34 Q1783.23 1544.47 1785.45 1545.03 Q1787.67 1545.58 1790.15 1545.58 Q1794.15 1545.58 1796.49 1543.48 Q1798.83 1541.37 1798.83 1537.76 Q1798.83 1534.15 1796.49 1532.04 Q1794.15 1529.94 1790.15 1529.94 Q1788.27 1529.94 1786.4 1530.35 Q1784.55 1530.77 1782.6 1531.65 L1782.6 1514.29 Z" fill="#000000" fill-rule="evenodd" fill-opacity="1" /><path clip-path="url(#clip160)" d="M2251.26 1544.91 L2258.9 1544.91 L2258.9 1518.55 L2250.59 1520.21 L2250.59 1515.95 L2258.86 1514.29 L2263.53 1514.29 L2263.53 1544.91 L2271.17 1544.91 L2271.17 1548.85 L2251.26 1548.85 L2251.26 1544.91 Z" fill="#000000" fill-rule="evenodd" fill-opacity="1" /><path clip-path="url(#clip160)" d="M2290.62 1517.37 Q2287 1517.37 2285.18 1520.93 Q2283.37 1524.47 2283.37 1531.6 Q2283.37 1538.71 2285.18 1542.27 Q2287 1545.82 2290.62 1545.82 Q2294.25 1545.82 2296.06 1542.27 Q2297.88 1538.71 2297.88 1531.6 Q2297.88 1524.47 2296.06 1520.93 Q2294.25 1517.37 2290.62 1517.37 M2290.62 1513.66 Q2296.43 1513.66 2299.48 1518.27 Q2302.56 1522.85 2302.56 1531.6 Q2302.56 1540.33 2299.48 1544.94 Q2296.43 1549.52 2290.62 1549.52 Q2284.81 1549.52 2281.73 1544.94 Q2278.67 1540.33 2278.67 1531.6 Q2278.67 1522.85 2281.73 1518.27 Q2284.81 1513.66 2290.62 1513.66 Z" fill="#000000" fill-rule="evenodd" fill-opacity="1" /><path clip-path="url(#clip160)" d="M2320.78 1517.37 Q2317.17 1517.37 2315.34 1520.93 Q2313.53 1524.47 2313.53 1531.6 Q2313.53 1538.71 2315.34 1542.27 Q2317.17 1545.82 2320.78 1545.82 Q2324.41 1545.82 2326.22 1542.27 Q2328.05 1538.71 2328.05 1531.6 Q2328.05 1524.47 2326.22 1520.93 Q2324.41 1517.37 2320.78 1517.37 M2320.78 1513.66 Q2326.59 1513.66 2329.64 1518.27 Q2332.72 1522.85 2332.72 1531.6 Q2332.72 1540.33 2329.64 1544.94 Q2326.59 1549.52 2320.78 1549.52 Q2314.97 1549.52 2311.89 1544.94 Q2308.83 1540.33 2308.83 1531.6 Q2308.83 1522.85 2311.89 1518.27 Q2314.97 1513.66 2320.78 1513.66 Z" fill="#000000" fill-rule="evenodd" fill-opacity="1" /><polyline clip-path="url(#clip162)" style="stroke:#000000; stroke-linecap:butt; stroke-linejoin:round; stroke-width:2; stroke-opacity:0.1; fill:none" points="
  193.936,1445.86 2352.76,1445.86 
  "/>
<polyline clip-path="url(#clip162)" style="stroke:#000000; stroke-linecap:butt; stroke-linejoin:round; stroke-width:2; stroke-opacity:0.1; fill:none" points="
  193.936,1106.43 2352.76,1106.43 
  "/>
<polyline clip-path="url(#clip162)" style="stroke:#000000; stroke-linecap:butt; stroke-linejoin:round; stroke-width:2; stroke-opacity:0.1; fill:none" points="
  193.936,766.999 2352.76,766.999 
  "/>
<polyline clip-path="url(#clip162)" style="stroke:#000000; stroke-linecap:butt; stroke-linejoin:round; stroke-width:2; stroke-opacity:0.1; fill:none" points="
  193.936,427.57 2352.76,427.57 
  "/>
<polyline clip-path="url(#clip162)" style="stroke:#000000; stroke-linecap:butt; stroke-linejoin:round; stroke-width:2; stroke-opacity:0.1; fill:none" points="
  193.936,88.1414 2352.76,88.1414 
  "/>
<polyline clip-path="url(#clip160)" style="stroke:#000000; stroke-linecap:butt; stroke-linejoin:round; stroke-width:4; stroke-opacity:1; fill:none" points="
  193.936,1486.45 193.936,47.2441 
  "/>
<polyline clip-path="url(#clip160)" style="stroke:#000000; stroke-linecap:butt; stroke-linejoin:round; stroke-width:4; stroke-opacity:1; fill:none" points="
  193.936,1445.86 212.834,1445.86 
  "/>
<polyline clip-path="url(#clip160)" style="stroke:#000000; stroke-linecap:butt; stroke-linejoin:round; stroke-width:4; stroke-opacity:1; fill:none" points="
  193.936,1106.43 212.834,1106.43 
  "/>
<polyline clip-path="url(#clip160)" style="stroke:#000000; stroke-linecap:butt; stroke-linejoin:round; stroke-width:4; stroke-opacity:1; fill:none" points="
  193.936,766.999 212.834,766.999 
  "/>
<polyline clip-path="url(#clip160)" style="stroke:#000000; stroke-linecap:butt; stroke-linejoin:round; stroke-width:4; stroke-opacity:1; fill:none" points="
  193.936,427.57 212.834,427.57 
  "/>
<polyline clip-path="url(#clip160)" style="stroke:#000000; stroke-linecap:butt; stroke-linejoin:round; stroke-width:4; stroke-opacity:1; fill:none" points="
  193.936,88.1414 212.834,88.1414 
  "/>
<path clip-path="url(#clip160)" d="M50.9921 1446.31 L80.6679 1446.31 L80.6679 1450.24 L50.9921 1450.24 L50.9921 1446.31 Z" fill="#000000" fill-rule="evenodd" fill-opacity="1" /><path clip-path="url(#clip160)" d="M91.5706 1459.2 L99.2095 1459.2 L99.2095 1432.84 L90.8993 1434.5 L90.8993 1430.24 L99.1632 1428.58 L103.839 1428.58 L103.839 1459.2 L111.478 1459.2 L111.478 1463.14 L91.5706 1463.14 L91.5706 1459.2 Z" fill="#000000" fill-rule="evenodd" fill-opacity="1" /><path clip-path="url(#clip160)" d="M120.922 1457.26 L125.807 1457.26 L125.807 1463.14 L120.922 1463.14 L120.922 1457.26 Z" fill="#000000" fill-rule="evenodd" fill-opacity="1" /><path clip-path="url(#clip160)" d="M145.992 1431.65 Q142.381 1431.65 140.552 1435.22 Q138.746 1438.76 138.746 1445.89 Q138.746 1453 140.552 1456.56 Q142.381 1460.1 145.992 1460.1 Q149.626 1460.1 151.431 1456.56 Q153.26 1453 153.26 1445.89 Q153.26 1438.76 151.431 1435.22 Q149.626 1431.65 145.992 1431.65 M145.992 1427.95 Q151.802 1427.95 154.857 1432.56 Q157.936 1437.14 157.936 1445.89 Q157.936 1454.62 154.857 1459.22 Q151.802 1463.81 145.992 1463.81 Q140.181 1463.81 137.103 1459.22 Q134.047 1454.62 134.047 1445.89 Q134.047 1437.14 137.103 1432.56 Q140.181 1427.95 145.992 1427.95 Z" fill="#000000" fill-rule="evenodd" fill-opacity="1" /><path clip-path="url(#clip160)" d="M51.9875 1106.88 L81.6633 1106.88 L81.6633 1110.81 L51.9875 1110.81 L51.9875 1106.88 Z" fill="#000000" fill-rule="evenodd" fill-opacity="1" /><path clip-path="url(#clip160)" d="M101.756 1092.23 Q98.1447 1092.23 96.316 1095.79 Q94.5104 1099.33 94.5104 1106.46 Q94.5104 1113.57 96.316 1117.13 Q98.1447 1120.67 101.756 1120.67 Q105.39 1120.67 107.196 1117.13 Q109.024 1113.57 109.024 1106.46 Q109.024 1099.33 107.196 1095.79 Q105.39 1092.23 101.756 1092.23 M101.756 1088.52 Q107.566 1088.52 110.621 1093.13 Q113.7 1097.71 113.7 1106.46 Q113.7 1115.19 110.621 1119.8 Q107.566 1124.38 101.756 1124.38 Q95.9456 1124.38 92.8669 1119.8 Q89.8114 1115.19 89.8114 1106.46 Q89.8114 1097.71 92.8669 1093.13 Q95.9456 1088.52 101.756 1088.52 Z" fill="#000000" fill-rule="evenodd" fill-opacity="1" /><path clip-path="url(#clip160)" d="M121.918 1117.83 L126.802 1117.83 L126.802 1123.71 L121.918 1123.71 L121.918 1117.83 Z" fill="#000000" fill-rule="evenodd" fill-opacity="1" /><path clip-path="url(#clip160)" d="M137.033 1089.15 L155.39 1089.15 L155.39 1093.08 L141.316 1093.08 L141.316 1101.55 Q142.334 1101.21 143.353 1101.05 Q144.371 1100.86 145.39 1100.86 Q151.177 1100.86 154.556 1104.03 Q157.936 1107.2 157.936 1112.62 Q157.936 1118.2 154.464 1121.3 Q150.992 1124.38 144.672 1124.38 Q142.496 1124.38 140.228 1124.01 Q137.982 1123.64 135.575 1122.9 L135.575 1118.2 Q137.658 1119.33 139.881 1119.89 Q142.103 1120.44 144.58 1120.44 Q148.584 1120.44 150.922 1118.34 Q153.26 1116.23 153.26 1112.62 Q153.26 1109.01 150.922 1106.9 Q148.584 1104.8 144.58 1104.8 Q142.705 1104.8 140.83 1105.21 Q138.978 1105.63 137.033 1106.51 L137.033 1089.15 Z" fill="#000000" fill-rule="evenodd" fill-opacity="1" /><path clip-path="url(#clip160)" d="M100.76 752.797 Q97.1493 752.797 95.3206 756.362 Q93.515 759.904 93.515 767.033 Q93.515 774.14 95.3206 777.705 Q97.1493 781.246 100.76 781.246 Q104.395 781.246 106.2 777.705 Q108.029 774.14 108.029 767.033 Q108.029 759.904 106.2 756.362 Q104.395 752.797 100.76 752.797 M100.76 749.094 Q106.571 749.094 109.626 753.7 Q112.705 758.283 112.705 767.033 Q112.705 775.76 109.626 780.367 Q106.571 784.95 100.76 784.95 Q94.9502 784.95 91.8715 780.367 Q88.816 775.76 88.816 767.033 Q88.816 758.283 91.8715 753.7 Q94.9502 749.094 100.76 749.094 Z" fill="#000000" fill-rule="evenodd" fill-opacity="1" /><path clip-path="url(#clip160)" d="M120.922 778.399 L125.807 778.399 L125.807 784.279 L120.922 784.279 L120.922 778.399 Z" fill="#000000" fill-rule="evenodd" fill-opacity="1" /><path clip-path="url(#clip160)" d="M145.992 752.797 Q142.381 752.797 140.552 756.362 Q138.746 759.904 138.746 767.033 Q138.746 774.14 140.552 777.705 Q142.381 781.246 145.992 781.246 Q149.626 781.246 151.431 777.705 Q153.26 774.14 153.26 767.033 Q153.26 759.904 151.431 756.362 Q149.626 752.797 145.992 752.797 M145.992 749.094 Q151.802 749.094 154.857 753.7 Q157.936 758.283 157.936 767.033 Q157.936 775.76 154.857 780.367 Q151.802 784.95 145.992 784.95 Q140.181 784.95 137.103 780.367 Q134.047 775.76 134.047 767.033 Q134.047 758.283 137.103 753.7 Q140.181 749.094 145.992 749.094 Z" fill="#000000" fill-rule="evenodd" fill-opacity="1" /><path clip-path="url(#clip160)" d="M101.756 413.369 Q98.1447 413.369 96.316 416.934 Q94.5104 420.475 94.5104 427.605 Q94.5104 434.711 96.316 438.276 Q98.1447 441.818 101.756 441.818 Q105.39 441.818 107.196 438.276 Q109.024 434.711 109.024 427.605 Q109.024 420.475 107.196 416.934 Q105.39 413.369 101.756 413.369 M101.756 409.665 Q107.566 409.665 110.621 414.272 Q113.7 418.855 113.7 427.605 Q113.7 436.332 110.621 440.938 Q107.566 445.521 101.756 445.521 Q95.9456 445.521 92.8669 440.938 Q89.8114 436.332 89.8114 427.605 Q89.8114 418.855 92.8669 414.272 Q95.9456 409.665 101.756 409.665 Z" fill="#000000" fill-rule="evenodd" fill-opacity="1" /><path clip-path="url(#clip160)" d="M121.918 438.97 L126.802 438.97 L126.802 444.85 L121.918 444.85 L121.918 438.97 Z" fill="#000000" fill-rule="evenodd" fill-opacity="1" /><path clip-path="url(#clip160)" d="M137.033 410.29 L155.39 410.29 L155.39 414.225 L141.316 414.225 L141.316 422.697 Q142.334 422.35 143.353 422.188 Q144.371 422.003 145.39 422.003 Q151.177 422.003 154.556 425.174 Q157.936 428.346 157.936 433.762 Q157.936 439.341 154.464 442.443 Q150.992 445.521 144.672 445.521 Q142.496 445.521 140.228 445.151 Q137.982 444.781 135.575 444.04 L135.575 439.341 Q137.658 440.475 139.881 441.031 Q142.103 441.586 144.58 441.586 Q148.584 441.586 150.922 439.48 Q153.26 437.373 153.26 433.762 Q153.26 430.151 150.922 428.045 Q148.584 425.938 144.58 425.938 Q142.705 425.938 140.83 426.355 Q138.978 426.771 137.033 427.651 L137.033 410.29 Z" fill="#000000" fill-rule="evenodd" fill-opacity="1" /><path clip-path="url(#clip160)" d="M91.5706 101.486 L99.2095 101.486 L99.2095 75.1206 L90.8993 76.7873 L90.8993 72.528 L99.1632 70.8614 L103.839 70.8614 L103.839 101.486 L111.478 101.486 L111.478 105.421 L91.5706 105.421 L91.5706 101.486 Z" fill="#000000" fill-rule="evenodd" fill-opacity="1" /><path clip-path="url(#clip160)" d="M120.922 99.5418 L125.807 99.5418 L125.807 105.421 L120.922 105.421 L120.922 99.5418 Z" fill="#000000" fill-rule="evenodd" fill-opacity="1" /><path clip-path="url(#clip160)" d="M145.992 73.9401 Q142.381 73.9401 140.552 77.5049 Q138.746 81.0465 138.746 88.1761 Q138.746 95.2825 140.552 98.8473 Q142.381 102.389 145.992 102.389 Q149.626 102.389 151.431 98.8473 Q153.26 95.2825 153.26 88.1761 Q153.26 81.0465 151.431 77.5049 Q149.626 73.9401 145.992 73.9401 M145.992 70.2364 Q151.802 70.2364 154.857 74.8428 Q157.936 79.4262 157.936 88.1761 Q157.936 96.9029 154.857 101.509 Q151.802 106.093 145.992 106.093 Q140.181 106.093 137.103 101.509 Q134.047 96.9029 134.047 88.1761 Q134.047 79.4262 137.103 74.8428 Q140.181 70.2364 145.992 70.2364 Z" fill="#000000" fill-rule="evenodd" fill-opacity="1" /><polyline clip-path="url(#clip162)" style="stroke:#009af9; stroke-linecap:butt; stroke-linejoin:round; stroke-width:4; stroke-opacity:1; fill:none" points="
  255.035,88.1418 275.607,88.1481 296.179,88.1753 316.751,88.2487 337.322,88.4033 357.894,88.6844 378.466,89.1473 399.038,89.8571 419.61,90.8889 440.182,92.3275 
  460.754,94.2674 481.326,96.8122 501.898,100.075 522.47,104.176 543.042,109.245 563.614,115.419 584.186,122.841 604.758,131.658 625.33,142.024 645.902,154.093 
  666.474,168.021 687.046,183.963 707.617,202.071 728.189,222.49 748.761,245.358 769.333,270.801 789.905,298.928 810.477,329.83 831.049,363.577 851.621,400.211 
  872.193,439.74 892.765,482.142 913.337,527.349 933.909,575.252 954.481,625.693 975.053,678.46 995.625,733.283 1016.2,789.837 1036.77,847.729 1057.34,906.508 
  1077.91,965.656 1098.48,1024.59 1119.06,1082.68 1139.63,1139.21 1160.2,1193.44 1180.77,1244.58 1201.34,1291.79 1221.92,1334.24 1242.49,1371.07 1263.06,1401.42 
  1283.63,1424.48 1304.2,1439.48 1324.78,1445.71 1345.35,1442.57 1365.92,1429.57 1386.49,1406.35 1407.06,1372.74 1427.64,1328.74 1448.21,1274.59 1468.78,1210.73 
  1489.35,1137.86 1509.92,1056.94 1530.5,969.164 1551.07,876.009 1571.64,779.18 1592.21,680.604 1612.78,582.403 1633.35,486.851 1653.93,396.326 1674.5,313.251 
  1695.07,240.024 1715.64,178.951 1736.21,132.156 1756.79,101.504 1777.36,88.5151 1797.93,94.2809 1818.5,119.39 1839.07,163.86 1859.65,227.089 1880.22,307.816 
  1900.79,404.112 1921.36,513.388 1941.93,632.439 1962.51,757.507 1983.08,884.388 2003.65,1008.55 2024.22,1125.31 2044.79,1229.96 2065.37,1318.06 2085.94,1385.53 
  2106.51,1428.95 2127.08,1445.72 2147.65,1434.24 2168.23,1394.1 2188.8,1326.13 2209.37,1232.5 2229.94,1116.68 2250.51,983.418 2271.09,838.536 2291.66,688.74 
  
  "/>
<polyline clip-path="url(#clip162)" style="stroke:#808080; stroke-linecap:butt; stroke-linejoin:round; stroke-width:4; stroke-opacity:1; fill:none" points="
  255.035,88.1418 419.61,90.8889 584.186,122.841 748.761,245.358 913.337,527.349 1077.91,965.656 1242.49,1371.07 1407.06,1372.74 1571.64,779.18 1736.21,132.156 
  1900.79,404.112 2065.37,1318.06 2229.94,1116.68 2291.66,688.74 
  "/>
<circle clip-path="url(#clip162)" cx="255.035" cy="88.1418" r="14" fill="#808080" fill-rule="evenodd" fill-opacity="1" stroke="#000000" stroke-opacity="1" stroke-width="3.2"/>
<circle clip-path="url(#clip162)" cx="419.61" cy="90.8889" r="14" fill="#808080" fill-rule="evenodd" fill-opacity="1" stroke="#000000" stroke-opacity="1" stroke-width="3.2"/>
<circle clip-path="url(#clip162)" cx="584.186" cy="122.841" r="14" fill="#808080" fill-rule="evenodd" fill-opacity="1" stroke="#000000" stroke-opacity="1" stroke-width="3.2"/>
<circle clip-path="url(#clip162)" cx="748.761" cy="245.358" r="14" fill="#808080" fill-rule="evenodd" fill-opacity="1" stroke="#000000" stroke-opacity="1" stroke-width="3.2"/>
<circle clip-path="url(#clip162)" cx="913.337" cy="527.349" r="14" fill="#808080" fill-rule="evenodd" fill-opacity="1" stroke="#000000" stroke-opacity="1" stroke-width="3.2"/>
<circle clip-path="url(#clip162)" cx="1077.91" cy="965.656" r="14" fill="#808080" fill-rule="evenodd" fill-opacity="1" stroke="#000000" stroke-opacity="1" stroke-width="3.2"/>
<circle clip-path="url(#clip162)" cx="1242.49" cy="1371.07" r="14" fill="#808080" fill-rule="evenodd" fill-opacity="1" stroke="#000000" stroke-opacity="1" stroke-width="3.2"/>
<circle clip-path="url(#clip162)" cx="1407.06" cy="1372.74" r="14" fill="#808080" fill-rule="evenodd" fill-opacity="1" stroke="#000000" stroke-opacity="1" stroke-width="3.2"/>
<circle clip-path="url(#clip162)" cx="1571.64" cy="779.18" r="14" fill="#808080" fill-rule="evenodd" fill-opacity="1" stroke="#000000" stroke-opacity="1" stroke-width="3.2"/>
<circle clip-path="url(#clip162)" cx="1736.21" cy="132.156" r="14" fill="#808080" fill-rule="evenodd" fill-opacity="1" stroke="#000000" stroke-opacity="1" stroke-width="3.2"/>
<circle clip-path="url(#clip162)" cx="1900.79" cy="404.112" r="14" fill="#808080" fill-rule="evenodd" fill-opacity="1" stroke="#000000" stroke-opacity="1" stroke-width="3.2"/>
<circle clip-path="url(#clip162)" cx="2065.37" cy="1318.06" r="14" fill="#808080" fill-rule="evenodd" fill-opacity="1" stroke="#000000" stroke-opacity="1" stroke-width="3.2"/>
<circle clip-path="url(#clip162)" cx="2229.94" cy="1116.68" r="14" fill="#808080" fill-rule="evenodd" fill-opacity="1" stroke="#000000" stroke-opacity="1" stroke-width="3.2"/>
<circle clip-path="url(#clip162)" cx="2291.66" cy="688.74" r="14" fill="#808080" fill-rule="evenodd" fill-opacity="1" stroke="#000000" stroke-opacity="1" stroke-width="3.2"/>
<polyline clip-path="url(#clip162)" style="stroke:#c271d2; stroke-linecap:butt; stroke-linejoin:round; stroke-width:4; stroke-opacity:1; fill:none" stroke-dasharray="16, 10" points="
  255.035,88.1418 275.607,90.8889 296.179,90.8889 316.751,90.8889 337.322,90.8889 357.894,90.8889 378.466,90.8889 399.038,90.8889 419.61,90.8889 440.182,122.841 
  460.754,122.841 481.326,122.841 501.898,122.841 522.47,122.841 543.042,122.841 563.614,122.841 584.186,122.841 604.758,245.358 625.33,245.358 645.902,245.358 
  666.474,245.358 687.046,245.358 707.617,245.358 728.189,245.358 748.761,245.358 769.333,527.349 789.905,527.349 810.477,527.349 831.049,527.349 851.621,527.349 
  872.193,527.349 892.765,527.349 913.337,527.349 933.909,965.656 954.481,965.656 975.053,965.656 995.625,965.656 1016.2,965.656 1036.77,965.656 1057.34,965.656 
  1077.91,965.656 1098.48,1371.07 1119.06,1371.07 1139.63,1371.07 1160.2,1371.07 1180.77,1371.07 1201.34,1371.07 1221.92,1371.07 1242.49,1371.07 1263.06,1372.74 
  1283.63,1372.74 1304.2,1372.74 1324.78,1372.74 1345.35,1372.74 1365.92,1372.74 1386.49,1372.74 1407.06,1372.74 1427.64,779.18 1448.21,779.18 1468.78,779.18 
  1489.35,779.18 1509.92,779.18 1530.5,779.18 1551.07,779.18 1571.64,779.18 1592.21,132.156 1612.78,132.156 1633.35,132.156 1653.93,132.156 1674.5,132.156 
  1695.07,132.156 1715.64,132.156 1736.21,132.156 1756.79,404.112 1777.36,404.112 1797.93,404.112 1818.5,404.112 1839.07,404.112 1859.65,404.112 1880.22,404.112 
  1900.79,404.112 1921.36,1318.06 1941.93,1318.06 1962.51,1318.06 1983.08,1318.06 2003.65,1318.06 2024.22,1318.06 2044.79,1318.06 2065.37,1318.06 2085.94,1116.68 
  2106.51,1116.68 2127.08,1116.68 2147.65,1116.68 2168.23,1116.68 2188.8,1116.68 2209.37,1116.68 2229.94,1116.68 2250.51,688.74 2271.09,688.74 2291.66,688.74 
  
  "/>
<polyline clip-path="url(#clip162)" style="stroke:#ac8d18; stroke-linecap:butt; stroke-linejoin:round; stroke-width:4; stroke-opacity:1; fill:none" stroke-dasharray="16, 10" points="
  255.035,88.1418 275.607,88.0377 296.179,87.9763 316.751,88.0001 337.322,88.1517 357.894,88.4738 378.466,89.0089 399.038,89.7998 419.61,90.8889 440.182,92.3334 
  460.754,94.248 481.326,96.7618 501.898,100.004 522.47,104.104 543.042,109.191 563.614,115.393 584.186,122.841 604.758,131.668 625.33,142.029 645.902,154.084 
  666.474,167.993 687.046,183.915 707.617,202.01 728.189,222.438 748.761,245.358 769.333,270.911 789.905,299.156 810.477,330.132 831.049,363.878 851.621,400.433 
  872.193,439.837 892.765,482.129 913.337,527.349 933.909,575.47 954.481,626.203 975.053,679.195 995.625,734.093 1016.2,790.541 1036.77,848.187 1057.34,906.677 
  1077.91,965.656 1098.48,1024.69 1119.06,1083.02 1139.63,1139.8 1160.2,1194.2 1180.77,1245.36 1201.34,1292.46 1221.92,1334.64 1242.49,1371.07 1263.06,1400.94 
  1283.63,1423.59 1304.2,1438.4 1324.78,1444.72 1345.35,1441.95 1365.92,1429.44 1386.49,1406.58 1407.06,1372.74 1427.64,1327.57 1448.21,1271.89 1468.78,1206.82 
  1489.35,1133.45 1509.92,1052.9 1530.5,966.268 1551.07,874.658 1571.64,779.18 1592.21,681.179 1612.78,582.967 1633.35,487.096 1653.93,396.116 1674.5,312.581 
  1695.07,239.041 1715.64,178.049 1736.21,132.156 1756.79,103.502 1777.36,92.5824 1797.93,99.4794 1818.5,124.276 1839.07,167.054 1859.65,227.898 1880.22,306.89 
  1900.79,404.112 1921.36,518.612 1941.93,645.297 1962.51,778.038 1983.08,910.705 2003.65,1037.17 2024.22,1151.3 2044.79,1246.97 2065.37,1318.06 2085.94,1360.08 
  2106.51,1375.23 2127.08,1367.34 2147.65,1340.24 2168.23,1297.79 2188.8,1243.82 2209.37,1182.17 2229.94,1116.68 2250.51,1050.55 2271.09,984.421 2291.66,918.291 
  
  "/>
<path clip-path="url(#clip160)" d="
M265.897 1438.47 L960.184 1438.47 L960.184 1179.27 L265.897 1179.27  Z
  " fill="#ffffff" fill-rule="evenodd" fill-opacity="1"/>
<polyline clip-path="url(#clip160)" style="stroke:#000000; stroke-linecap:butt; stroke-linejoin:round; stroke-width:4; stroke-opacity:1; fill:none" points="
  265.897,1438.47 960.184,1438.47 960.184,1179.27 265.897,1179.27 265.897,1438.47 
  "/>
<polyline clip-path="url(#clip160)" style="stroke:#009af9; stroke-linecap:butt; stroke-linejoin:round; stroke-width:4; stroke-opacity:1; fill:none" points="
  289.884,1231.11 433.805,1231.11 
  "/>
<path clip-path="url(#clip160)" d="M469.69 1225.45 Q466.264 1225.45 464.273 1228.14 Q462.282 1230.8 462.282 1235.45 Q462.282 1240.11 464.25 1242.79 Q466.241 1245.45 469.69 1245.45 Q473.093 1245.45 475.083 1242.77 Q477.074 1240.08 477.074 1235.45 Q477.074 1230.85 475.083 1228.16 Q473.093 1225.45 469.69 1225.45 M469.69 1221.84 Q475.245 1221.84 478.417 1225.45 Q481.588 1229.07 481.588 1235.45 Q481.588 1241.82 478.417 1245.45 Q475.245 1249.07 469.69 1249.07 Q464.111 1249.07 460.94 1245.45 Q457.792 1241.82 457.792 1235.45 Q457.792 1229.07 460.94 1225.45 Q464.111 1221.84 469.69 1221.84 Z" fill="#000000" fill-rule="evenodd" fill-opacity="1" /><path clip-path="url(#clip160)" d="M503.671 1226.45 Q502.954 1226.03 502.097 1225.85 Q501.264 1225.64 500.245 1225.64 Q496.634 1225.64 494.69 1228 Q492.768 1230.34 492.768 1234.74 L492.768 1248.39 L488.486 1248.39 L488.486 1222.47 L492.768 1222.47 L492.768 1226.5 Q494.111 1224.14 496.264 1223 Q498.417 1221.84 501.495 1221.84 Q501.935 1221.84 502.467 1221.91 Q503 1221.96 503.648 1222.08 L503.671 1226.45 Z" fill="#000000" fill-rule="evenodd" fill-opacity="1" /><path clip-path="url(#clip160)" d="M508.139 1222.47 L512.398 1222.47 L512.398 1248.39 L508.139 1248.39 L508.139 1222.47 M508.139 1212.38 L512.398 1212.38 L512.398 1217.77 L508.139 1217.77 L508.139 1212.38 Z" fill="#000000" fill-rule="evenodd" fill-opacity="1" /><path clip-path="url(#clip160)" d="M538.37 1235.13 Q538.37 1230.5 536.449 1227.95 Q534.551 1225.41 531.102 1225.41 Q527.676 1225.41 525.754 1227.95 Q523.856 1230.5 523.856 1235.13 Q523.856 1239.74 525.754 1242.28 Q527.676 1244.83 531.102 1244.83 Q534.551 1244.83 536.449 1242.28 Q538.37 1239.74 538.37 1235.13 M542.629 1245.18 Q542.629 1251.8 539.689 1255.01 Q536.75 1258.26 530.685 1258.26 Q528.44 1258.26 526.449 1257.91 Q524.458 1257.58 522.583 1256.89 L522.583 1252.75 Q524.458 1253.76 526.287 1254.25 Q528.115 1254.74 530.014 1254.74 Q534.203 1254.74 536.287 1252.54 Q538.37 1250.36 538.37 1245.94 L538.37 1243.83 Q537.051 1246.13 534.99 1247.26 Q532.93 1248.39 530.06 1248.39 Q525.291 1248.39 522.375 1244.76 Q519.458 1241.13 519.458 1235.13 Q519.458 1229.11 522.375 1225.48 Q525.291 1221.84 530.06 1221.84 Q532.93 1221.84 534.99 1222.98 Q537.051 1224.11 538.37 1226.4 L538.37 1222.47 L542.629 1222.47 L542.629 1245.18 Z" fill="#000000" fill-rule="evenodd" fill-opacity="1" /><path clip-path="url(#clip160)" d="M551.402 1222.47 L555.662 1222.47 L555.662 1248.39 L551.402 1248.39 L551.402 1222.47 M551.402 1212.38 L555.662 1212.38 L555.662 1217.77 L551.402 1217.77 L551.402 1212.38 Z" fill="#000000" fill-rule="evenodd" fill-opacity="1" /><path clip-path="url(#clip160)" d="M586.124 1232.75 L586.124 1248.39 L581.865 1248.39 L581.865 1232.89 Q581.865 1229.2 580.43 1227.38 Q578.995 1225.55 576.124 1225.55 Q572.675 1225.55 570.685 1227.75 Q568.694 1229.95 568.694 1233.74 L568.694 1248.39 L564.412 1248.39 L564.412 1222.47 L568.694 1222.47 L568.694 1226.5 Q570.222 1224.16 572.282 1223 Q574.365 1221.84 577.074 1221.84 Q581.541 1221.84 583.833 1224.62 Q586.124 1227.38 586.124 1232.75 Z" fill="#000000" fill-rule="evenodd" fill-opacity="1" /><path clip-path="url(#clip160)" d="M606.402 1235.36 Q601.24 1235.36 599.249 1236.54 Q597.259 1237.72 597.259 1240.57 Q597.259 1242.84 598.74 1244.18 Q600.245 1245.5 602.814 1245.5 Q606.356 1245.5 608.485 1243 Q610.638 1240.48 610.638 1236.31 L610.638 1235.36 L606.402 1235.36 M614.897 1233.6 L614.897 1248.39 L610.638 1248.39 L610.638 1244.46 Q609.18 1246.82 607.004 1247.95 Q604.828 1249.07 601.68 1249.07 Q597.698 1249.07 595.337 1246.84 Q592.999 1244.6 592.999 1240.85 Q592.999 1236.47 595.916 1234.25 Q598.856 1232.03 604.666 1232.03 L610.638 1232.03 L610.638 1231.61 Q610.638 1228.67 608.694 1227.08 Q606.772 1225.45 603.277 1225.45 Q601.055 1225.45 598.948 1225.99 Q596.842 1226.52 594.898 1227.58 L594.898 1223.65 Q597.235 1222.75 599.435 1222.31 Q601.634 1221.84 603.717 1221.84 Q609.342 1221.84 612.12 1224.76 Q614.897 1227.68 614.897 1233.6 Z" fill="#000000" fill-rule="evenodd" fill-opacity="1" /><path clip-path="url(#clip160)" d="M623.671 1212.38 L627.93 1212.38 L627.93 1248.39 L623.671 1248.39 L623.671 1212.38 Z" fill="#000000" fill-rule="evenodd" fill-opacity="1" /><path clip-path="url(#clip160)" d="M670.568 1223.46 L670.568 1227.45 Q668.763 1226.45 666.934 1225.96 Q665.129 1225.45 663.277 1225.45 Q659.133 1225.45 656.842 1228.09 Q654.55 1230.71 654.55 1235.45 Q654.55 1240.2 656.842 1242.84 Q659.133 1245.45 663.277 1245.45 Q665.129 1245.45 666.934 1244.97 Q668.763 1244.46 670.568 1243.46 L670.568 1247.4 Q668.786 1248.23 666.865 1248.65 Q664.967 1249.07 662.814 1249.07 Q656.957 1249.07 653.508 1245.39 Q650.059 1241.7 650.059 1235.45 Q650.059 1229.11 653.531 1225.48 Q657.027 1221.84 663.092 1221.84 Q665.059 1221.84 666.934 1222.26 Q668.809 1222.65 670.568 1223.46 Z" fill="#000000" fill-rule="evenodd" fill-opacity="1" /><path clip-path="url(#clip160)" d="M677.536 1238.16 L677.536 1222.47 L681.795 1222.47 L681.795 1238 Q681.795 1241.68 683.23 1243.53 Q684.666 1245.36 687.536 1245.36 Q690.985 1245.36 692.976 1243.16 Q694.99 1240.96 694.99 1237.17 L694.99 1222.47 L699.249 1222.47 L699.249 1248.39 L694.99 1248.39 L694.99 1244.41 Q693.439 1246.77 691.378 1247.93 Q689.341 1249.07 686.633 1249.07 Q682.166 1249.07 679.851 1246.29 Q677.536 1243.51 677.536 1238.16 M688.253 1221.84 L688.253 1221.84 Z" fill="#000000" fill-rule="evenodd" fill-opacity="1" /><path clip-path="url(#clip160)" d="M723.045 1226.45 Q722.327 1226.03 721.471 1225.85 Q720.638 1225.64 719.619 1225.64 Q716.008 1225.64 714.064 1228 Q712.142 1230.34 712.142 1234.74 L712.142 1248.39 L707.86 1248.39 L707.86 1222.47 L712.142 1222.47 L712.142 1226.5 Q713.485 1224.14 715.638 1223 Q717.79 1221.84 720.869 1221.84 Q721.309 1221.84 721.841 1221.91 Q722.374 1221.96 723.022 1222.08 L723.045 1226.45 Z" fill="#000000" fill-rule="evenodd" fill-opacity="1" /><path clip-path="url(#clip160)" d="M724.457 1222.47 L728.971 1222.47 L737.073 1244.23 L745.174 1222.47 L749.688 1222.47 L739.966 1248.39 L734.179 1248.39 L724.457 1222.47 Z" fill="#000000" fill-rule="evenodd" fill-opacity="1" /><path clip-path="url(#clip160)" d="M777.744 1234.37 L777.744 1236.45 L758.161 1236.45 Q758.438 1240.85 760.799 1243.16 Q763.184 1245.45 767.42 1245.45 Q769.873 1245.45 772.165 1244.85 Q774.48 1244.25 776.748 1243.05 L776.748 1247.07 Q774.457 1248.05 772.049 1248.56 Q769.642 1249.07 767.165 1249.07 Q760.961 1249.07 757.327 1245.45 Q753.716 1241.84 753.716 1235.69 Q753.716 1229.32 757.142 1225.59 Q760.591 1221.84 766.424 1221.84 Q771.656 1221.84 774.688 1225.22 Q777.744 1228.58 777.744 1234.37 M773.485 1233.12 Q773.438 1229.62 771.517 1227.54 Q769.619 1225.45 766.471 1225.45 Q762.906 1225.45 760.753 1227.47 Q758.623 1229.48 758.299 1233.14 L773.485 1233.12 Z" fill="#000000" fill-rule="evenodd" fill-opacity="1" /><polyline clip-path="url(#clip160)" style="stroke:#808080; stroke-linecap:butt; stroke-linejoin:round; stroke-width:4; stroke-opacity:1; fill:none" points="
  289.884,1282.95 433.805,1282.95 
  "/>
<path clip-path="url(#clip160)" d="M476.218 1275.07 L476.218 1279.1 Q474.412 1278.17 472.468 1277.71 Q470.523 1277.25 468.44 1277.25 Q465.269 1277.25 463.671 1278.22 Q462.097 1279.19 462.097 1281.14 Q462.097 1282.62 463.232 1283.48 Q464.366 1284.31 467.792 1285.07 L469.25 1285.4 Q473.787 1286.37 475.685 1288.15 Q477.606 1289.91 477.606 1293.08 Q477.606 1296.69 474.736 1298.8 Q471.889 1300.91 466.889 1300.91 Q464.806 1300.91 462.537 1300.49 Q460.292 1300.1 457.792 1299.29 L457.792 1294.89 Q460.153 1296.11 462.445 1296.74 Q464.736 1297.34 466.982 1297.34 Q469.991 1297.34 471.611 1296.32 Q473.231 1295.28 473.231 1293.41 Q473.231 1291.67 472.051 1290.74 Q470.894 1289.82 466.935 1288.96 L465.454 1288.61 Q461.495 1287.78 459.736 1286.07 Q457.977 1284.33 457.977 1281.32 Q457.977 1277.67 460.57 1275.67 Q463.162 1273.68 467.931 1273.68 Q470.292 1273.68 472.375 1274.03 Q474.458 1274.38 476.218 1275.07 Z" fill="#000000" fill-rule="evenodd" fill-opacity="1" /><path clip-path="url(#clip160)" d="M496.171 1287.2 Q491.009 1287.2 489.018 1288.38 Q487.028 1289.56 487.028 1292.41 Q487.028 1294.68 488.509 1296.02 Q490.014 1297.34 492.583 1297.34 Q496.125 1297.34 498.255 1294.84 Q500.407 1292.32 500.407 1288.15 L500.407 1287.2 L496.171 1287.2 M504.667 1285.44 L504.667 1300.23 L500.407 1300.23 L500.407 1296.3 Q498.949 1298.66 496.773 1299.79 Q494.597 1300.91 491.449 1300.91 Q487.468 1300.91 485.106 1298.68 Q482.768 1296.44 482.768 1292.69 Q482.768 1288.31 485.685 1286.09 Q488.625 1283.87 494.435 1283.87 L500.407 1283.87 L500.407 1283.45 Q500.407 1280.51 498.463 1278.92 Q496.542 1277.29 493.046 1277.29 Q490.824 1277.29 488.718 1277.83 Q486.611 1278.36 484.667 1279.42 L484.667 1275.49 Q487.005 1274.59 489.204 1274.15 Q491.403 1273.68 493.486 1273.68 Q499.111 1273.68 501.889 1276.6 Q504.667 1279.52 504.667 1285.44 Z" fill="#000000" fill-rule="evenodd" fill-opacity="1" /><path clip-path="url(#clip160)" d="M533.625 1279.29 Q535.222 1276.42 537.444 1275.05 Q539.666 1273.68 542.676 1273.68 Q546.726 1273.68 548.926 1276.53 Q551.125 1279.35 551.125 1284.59 L551.125 1300.23 L546.842 1300.23 L546.842 1284.73 Q546.842 1281 545.523 1279.19 Q544.203 1277.39 541.495 1277.39 Q538.185 1277.39 536.264 1279.59 Q534.342 1281.79 534.342 1285.58 L534.342 1300.23 L530.06 1300.23 L530.06 1284.73 Q530.06 1280.98 528.74 1279.19 Q527.421 1277.39 524.666 1277.39 Q521.403 1277.39 519.481 1279.61 Q517.56 1281.81 517.56 1285.58 L517.56 1300.23 L513.278 1300.23 L513.278 1274.31 L517.56 1274.31 L517.56 1278.34 Q519.018 1275.95 521.055 1274.82 Q523.092 1273.68 525.893 1273.68 Q528.717 1273.68 530.685 1275.12 Q532.676 1276.55 533.625 1279.29 Z" fill="#000000" fill-rule="evenodd" fill-opacity="1" /><path clip-path="url(#clip160)" d="M563.74 1296.35 L563.74 1310.1 L559.458 1310.1 L559.458 1274.31 L563.74 1274.31 L563.74 1278.24 Q565.083 1275.93 567.12 1274.82 Q569.18 1273.68 572.027 1273.68 Q576.749 1273.68 579.689 1277.43 Q582.652 1281.18 582.652 1287.29 Q582.652 1293.41 579.689 1297.16 Q576.749 1300.91 572.027 1300.91 Q569.18 1300.91 567.12 1299.79 Q565.083 1298.66 563.74 1296.35 M578.231 1287.29 Q578.231 1282.6 576.286 1279.93 Q574.365 1277.25 570.986 1277.25 Q567.606 1277.25 565.662 1279.93 Q563.74 1282.6 563.74 1287.29 Q563.74 1291.99 565.662 1294.68 Q567.606 1297.34 570.986 1297.34 Q574.365 1297.34 576.286 1294.68 Q578.231 1291.99 578.231 1287.29 Z" fill="#000000" fill-rule="evenodd" fill-opacity="1" /><path clip-path="url(#clip160)" d="M589.712 1264.22 L593.972 1264.22 L593.972 1300.23 L589.712 1300.23 L589.712 1264.22 Z" fill="#000000" fill-rule="evenodd" fill-opacity="1" /><path clip-path="url(#clip160)" d="M602.884 1274.31 L607.143 1274.31 L607.143 1300.23 L602.884 1300.23 L602.884 1274.31 M602.884 1264.22 L607.143 1264.22 L607.143 1269.61 L602.884 1269.61 L602.884 1264.22 Z" fill="#000000" fill-rule="evenodd" fill-opacity="1" /><path clip-path="url(#clip160)" d="M637.606 1284.59 L637.606 1300.23 L633.346 1300.23 L633.346 1284.73 Q633.346 1281.04 631.911 1279.22 Q630.476 1277.39 627.606 1277.39 Q624.157 1277.39 622.166 1279.59 Q620.175 1281.79 620.175 1285.58 L620.175 1300.23 L615.893 1300.23 L615.893 1274.31 L620.175 1274.31 L620.175 1278.34 Q621.703 1276 623.763 1274.84 Q625.846 1273.68 628.555 1273.68 Q633.022 1273.68 635.314 1276.46 Q637.606 1279.22 637.606 1284.59 Z" fill="#000000" fill-rule="evenodd" fill-opacity="1" /><path clip-path="url(#clip160)" d="M663.161 1286.97 Q663.161 1282.34 661.24 1279.79 Q659.342 1277.25 655.893 1277.25 Q652.467 1277.25 650.545 1279.79 Q648.647 1282.34 648.647 1286.97 Q648.647 1291.58 650.545 1294.12 Q652.467 1296.67 655.893 1296.67 Q659.342 1296.67 661.24 1294.12 Q663.161 1291.58 663.161 1286.97 M667.42 1297.02 Q667.42 1303.64 664.48 1306.85 Q661.541 1310.1 655.476 1310.1 Q653.231 1310.1 651.24 1309.75 Q649.249 1309.42 647.374 1308.73 L647.374 1304.59 Q649.249 1305.6 651.078 1306.09 Q652.906 1306.58 654.805 1306.58 Q658.994 1306.58 661.078 1304.38 Q663.161 1302.2 663.161 1297.78 L663.161 1295.67 Q661.842 1297.97 659.781 1299.1 Q657.721 1300.23 654.851 1300.23 Q650.082 1300.23 647.166 1296.6 Q644.249 1292.97 644.249 1286.97 Q644.249 1280.95 647.166 1277.32 Q650.082 1273.68 654.851 1273.68 Q657.721 1273.68 659.781 1274.82 Q661.842 1275.95 663.161 1278.24 L663.161 1274.31 L667.42 1274.31 L667.42 1297.02 Z" fill="#000000" fill-rule="evenodd" fill-opacity="1" /><path clip-path="url(#clip160)" d="M695.383 1296.35 L695.383 1310.1 L691.101 1310.1 L691.101 1274.31 L695.383 1274.31 L695.383 1278.24 Q696.726 1275.93 698.763 1274.82 Q700.823 1273.68 703.67 1273.68 Q708.392 1273.68 711.332 1277.43 Q714.295 1281.18 714.295 1287.29 Q714.295 1293.41 711.332 1297.16 Q708.392 1300.91 703.67 1300.91 Q700.823 1300.91 698.763 1299.79 Q696.726 1298.66 695.383 1296.35 M709.874 1287.29 Q709.874 1282.6 707.929 1279.93 Q706.008 1277.25 702.628 1277.25 Q699.249 1277.25 697.304 1279.93 Q695.383 1282.6 695.383 1287.29 Q695.383 1291.99 697.304 1294.68 Q699.249 1297.34 702.628 1297.34 Q706.008 1297.34 707.929 1294.68 Q709.874 1291.99 709.874 1287.29 Z" fill="#000000" fill-rule="evenodd" fill-opacity="1" /><path clip-path="url(#clip160)" d="M731.401 1277.29 Q727.976 1277.29 725.985 1279.98 Q723.994 1282.64 723.994 1287.29 Q723.994 1291.95 725.962 1294.63 Q727.952 1297.29 731.401 1297.29 Q734.804 1297.29 736.795 1294.61 Q738.786 1291.92 738.786 1287.29 Q738.786 1282.69 736.795 1280 Q734.804 1277.29 731.401 1277.29 M731.401 1273.68 Q736.957 1273.68 740.128 1277.29 Q743.299 1280.91 743.299 1287.29 Q743.299 1293.66 740.128 1297.29 Q736.957 1300.91 731.401 1300.91 Q725.823 1300.91 722.651 1297.29 Q719.503 1293.66 719.503 1287.29 Q719.503 1280.91 722.651 1277.29 Q725.823 1273.68 731.401 1273.68 Z" fill="#000000" fill-rule="evenodd" fill-opacity="1" /><path clip-path="url(#clip160)" d="M750.36 1274.31 L754.619 1274.31 L754.619 1300.23 L750.36 1300.23 L750.36 1274.31 M750.36 1264.22 L754.619 1264.22 L754.619 1269.61 L750.36 1269.61 L750.36 1264.22 Z" fill="#000000" fill-rule="evenodd" fill-opacity="1" /><path clip-path="url(#clip160)" d="M785.082 1284.59 L785.082 1300.23 L780.822 1300.23 L780.822 1284.73 Q780.822 1281.04 779.387 1279.22 Q777.952 1277.39 775.082 1277.39 Q771.633 1277.39 769.642 1279.59 Q767.651 1281.79 767.651 1285.58 L767.651 1300.23 L763.369 1300.23 L763.369 1274.31 L767.651 1274.31 L767.651 1278.34 Q769.179 1276 771.239 1274.84 Q773.322 1273.68 776.031 1273.68 Q780.498 1273.68 782.79 1276.46 Q785.082 1279.22 785.082 1284.59 Z" fill="#000000" fill-rule="evenodd" fill-opacity="1" /><path clip-path="url(#clip160)" d="M797.79 1266.95 L797.79 1274.31 L806.563 1274.31 L806.563 1277.62 L797.79 1277.62 L797.79 1291.69 Q797.79 1294.86 798.646 1295.77 Q799.526 1296.67 802.188 1296.67 L806.563 1296.67 L806.563 1300.23 L802.188 1300.23 Q797.258 1300.23 795.383 1298.41 Q793.508 1296.55 793.508 1291.69 L793.508 1277.62 L790.383 1277.62 L790.383 1274.31 L793.508 1274.31 L793.508 1266.95 L797.79 1266.95 Z" fill="#000000" fill-rule="evenodd" fill-opacity="1" /><path clip-path="url(#clip160)" d="M828.693 1275.07 L828.693 1279.1 Q826.887 1278.17 824.943 1277.71 Q822.998 1277.25 820.915 1277.25 Q817.744 1277.25 816.146 1278.22 Q814.572 1279.19 814.572 1281.14 Q814.572 1282.62 815.707 1283.48 Q816.841 1284.31 820.267 1285.07 L821.725 1285.4 Q826.262 1286.37 828.16 1288.15 Q830.081 1289.91 830.081 1293.08 Q830.081 1296.69 827.211 1298.8 Q824.364 1300.91 819.364 1300.91 Q817.281 1300.91 815.012 1300.49 Q812.767 1300.1 810.267 1299.29 L810.267 1294.89 Q812.628 1296.11 814.919 1296.74 Q817.211 1297.34 819.456 1297.34 Q822.466 1297.34 824.086 1296.32 Q825.706 1295.28 825.706 1293.41 Q825.706 1291.67 824.526 1290.74 Q823.369 1289.82 819.41 1288.96 L817.929 1288.61 Q813.97 1287.78 812.211 1286.07 Q810.452 1284.33 810.452 1281.32 Q810.452 1277.67 813.044 1275.67 Q815.637 1273.68 820.406 1273.68 Q822.767 1273.68 824.85 1274.03 Q826.933 1274.38 828.693 1275.07 Z" fill="#000000" fill-rule="evenodd" fill-opacity="1" /><polyline clip-path="url(#clip160)" style="stroke:#c271d2; stroke-linecap:butt; stroke-linejoin:round; stroke-width:4; stroke-opacity:1; fill:none" stroke-dasharray="16, 10" points="
  289.884,1334.79 433.805,1334.79 
  "/>
<path clip-path="url(#clip160)" d="M476.565 1339.13 Q476.565 1334.44 474.62 1331.77 Q472.699 1329.09 469.319 1329.09 Q465.94 1329.09 463.995 1331.77 Q462.074 1334.44 462.074 1339.13 Q462.074 1343.83 463.995 1346.52 Q465.94 1349.18 469.319 1349.18 Q472.699 1349.18 474.62 1346.52 Q476.565 1343.83 476.565 1339.13 M462.074 1330.08 Q463.417 1327.77 465.454 1326.66 Q467.514 1325.52 470.361 1325.52 Q475.083 1325.52 478.023 1329.27 Q480.986 1333.02 480.986 1339.13 Q480.986 1345.25 478.023 1349 Q475.083 1352.75 470.361 1352.75 Q467.514 1352.75 465.454 1351.63 Q463.417 1350.5 462.074 1348.19 L462.074 1352.07 L457.792 1352.07 L457.792 1316.06 L462.074 1316.06 L462.074 1330.08 Z" fill="#000000" fill-rule="evenodd" fill-opacity="1" /><path clip-path="url(#clip160)" d="M499.829 1339.04 Q494.667 1339.04 492.676 1340.22 Q490.685 1341.4 490.685 1344.25 Q490.685 1346.52 492.167 1347.86 Q493.671 1349.18 496.241 1349.18 Q499.782 1349.18 501.912 1346.68 Q504.065 1344.16 504.065 1339.99 L504.065 1339.04 L499.829 1339.04 M508.324 1337.28 L508.324 1352.07 L504.065 1352.07 L504.065 1348.14 Q502.606 1350.5 500.43 1351.63 Q498.255 1352.75 495.106 1352.75 Q491.125 1352.75 488.764 1350.52 Q486.426 1348.28 486.426 1344.53 Q486.426 1340.15 489.343 1337.93 Q492.282 1335.71 498.092 1335.71 L504.065 1335.71 L504.065 1335.29 Q504.065 1332.35 502.12 1330.76 Q500.199 1329.13 496.704 1329.13 Q494.481 1329.13 492.375 1329.67 Q490.268 1330.2 488.324 1331.26 L488.324 1327.33 Q490.662 1326.43 492.861 1325.99 Q495.06 1325.52 497.143 1325.52 Q502.768 1325.52 505.546 1328.44 Q508.324 1331.36 508.324 1337.28 Z" fill="#000000" fill-rule="evenodd" fill-opacity="1" /><path clip-path="url(#clip160)" d="M533.625 1326.91 L533.625 1330.94 Q531.819 1330.01 529.875 1329.55 Q527.93 1329.09 525.847 1329.09 Q522.676 1329.09 521.078 1330.06 Q519.504 1331.03 519.504 1332.98 Q519.504 1334.46 520.639 1335.32 Q521.773 1336.15 525.199 1336.91 L526.657 1337.24 Q531.194 1338.21 533.092 1339.99 Q535.014 1341.75 535.014 1344.92 Q535.014 1348.53 532.143 1350.64 Q529.296 1352.75 524.296 1352.75 Q522.213 1352.75 519.944 1352.33 Q517.699 1351.94 515.199 1351.13 L515.199 1346.73 Q517.56 1347.95 519.852 1348.58 Q522.143 1349.18 524.389 1349.18 Q527.398 1349.18 529.018 1348.16 Q530.639 1347.12 530.639 1345.25 Q530.639 1343.51 529.458 1342.58 Q528.301 1341.66 524.342 1340.8 L522.861 1340.45 Q518.903 1339.62 517.143 1337.91 Q515.384 1336.17 515.384 1333.16 Q515.384 1329.51 517.977 1327.51 Q520.569 1325.52 525.338 1325.52 Q527.699 1325.52 529.782 1325.87 Q531.865 1326.22 533.625 1326.91 Z" fill="#000000" fill-rule="evenodd" fill-opacity="1" /><path clip-path="url(#clip160)" d="M541.796 1326.15 L546.055 1326.15 L546.055 1352.07 L541.796 1352.07 L541.796 1326.15 M541.796 1316.06 L546.055 1316.06 L546.055 1321.45 L541.796 1321.45 L541.796 1316.06 Z" fill="#000000" fill-rule="evenodd" fill-opacity="1" /><path clip-path="url(#clip160)" d="M573.624 1327.14 L573.624 1331.13 Q571.819 1330.13 569.99 1329.64 Q568.185 1329.13 566.333 1329.13 Q562.189 1329.13 559.898 1331.77 Q557.606 1334.39 557.606 1339.13 Q557.606 1343.88 559.898 1346.52 Q562.189 1349.13 566.333 1349.13 Q568.185 1349.13 569.99 1348.65 Q571.819 1348.14 573.624 1347.14 L573.624 1351.08 Q571.842 1351.91 569.921 1352.33 Q568.023 1352.75 565.87 1352.75 Q560.013 1352.75 556.564 1349.07 Q553.115 1345.38 553.115 1339.13 Q553.115 1332.79 556.588 1329.16 Q560.083 1325.52 566.148 1325.52 Q568.115 1325.52 569.99 1325.94 Q571.865 1326.33 573.624 1327.14 Z" fill="#000000" fill-rule="evenodd" fill-opacity="1" /><path clip-path="url(#clip160)" d="M596.101 1326.15 L600.36 1326.15 L600.36 1352.07 L596.101 1352.07 L596.101 1326.15 M596.101 1316.06 L600.36 1316.06 L600.36 1321.45 L596.101 1321.45 L596.101 1316.06 Z" fill="#000000" fill-rule="evenodd" fill-opacity="1" /><path clip-path="url(#clip160)" d="M630.823 1336.43 L630.823 1352.07 L626.564 1352.07 L626.564 1336.57 Q626.564 1332.88 625.129 1331.06 Q623.694 1329.23 620.823 1329.23 Q617.374 1329.23 615.384 1331.43 Q613.393 1333.63 613.393 1337.42 L613.393 1352.07 L609.11 1352.07 L609.11 1326.15 L613.393 1326.15 L613.393 1330.18 Q614.921 1327.84 616.981 1326.68 Q619.064 1325.52 621.772 1325.52 Q626.24 1325.52 628.532 1328.3 Q630.823 1331.06 630.823 1336.43 Z" fill="#000000" fill-rule="evenodd" fill-opacity="1" /><path clip-path="url(#clip160)" d="M643.532 1318.79 L643.532 1326.15 L652.305 1326.15 L652.305 1329.46 L643.532 1329.46 L643.532 1343.53 Q643.532 1346.7 644.388 1347.61 Q645.268 1348.51 647.93 1348.51 L652.305 1348.51 L652.305 1352.07 L647.93 1352.07 Q642.999 1352.07 641.124 1350.25 Q639.249 1348.39 639.249 1343.53 L639.249 1329.46 L636.124 1329.46 L636.124 1326.15 L639.249 1326.15 L639.249 1318.79 L643.532 1318.79 Z" fill="#000000" fill-rule="evenodd" fill-opacity="1" /><path clip-path="url(#clip160)" d="M680.082 1338.05 L680.082 1340.13 L660.499 1340.13 Q660.777 1344.53 663.138 1346.84 Q665.522 1349.13 669.758 1349.13 Q672.212 1349.13 674.504 1348.53 Q676.818 1347.93 679.087 1346.73 L679.087 1350.75 Q676.795 1351.73 674.388 1352.24 Q671.98 1352.75 669.504 1352.75 Q663.3 1352.75 659.666 1349.13 Q656.055 1345.52 656.055 1339.37 Q656.055 1333 659.48 1329.27 Q662.93 1325.52 668.763 1325.52 Q673.994 1325.52 677.027 1328.9 Q680.082 1332.26 680.082 1338.05 M675.823 1336.8 Q675.777 1333.3 673.855 1331.22 Q671.957 1329.13 668.809 1329.13 Q665.244 1329.13 663.092 1331.15 Q660.962 1333.16 660.638 1336.82 L675.823 1336.8 Z" fill="#000000" fill-rule="evenodd" fill-opacity="1" /><path clip-path="url(#clip160)" d="M702.096 1330.13 Q701.378 1329.71 700.522 1329.53 Q699.689 1329.32 698.67 1329.32 Q695.059 1329.32 693.115 1331.68 Q691.193 1334.02 691.193 1338.42 L691.193 1352.07 L686.911 1352.07 L686.911 1326.15 L691.193 1326.15 L691.193 1330.18 Q692.536 1327.82 694.689 1326.68 Q696.841 1325.52 699.92 1325.52 Q700.36 1325.52 700.892 1325.59 Q701.425 1325.64 702.073 1325.76 L702.096 1330.13 Z" fill="#000000" fill-rule="evenodd" fill-opacity="1" /><path clip-path="url(#clip160)" d="M710.684 1348.19 L710.684 1361.94 L706.402 1361.94 L706.402 1326.15 L710.684 1326.15 L710.684 1330.08 Q712.027 1327.77 714.064 1326.66 Q716.124 1325.52 718.971 1325.52 Q723.693 1325.52 726.633 1329.27 Q729.596 1333.02 729.596 1339.13 Q729.596 1345.25 726.633 1349 Q723.693 1352.75 718.971 1352.75 Q716.124 1352.75 714.064 1351.63 Q712.027 1350.5 710.684 1348.19 M725.175 1339.13 Q725.175 1334.44 723.23 1331.77 Q721.309 1329.09 717.929 1329.09 Q714.55 1329.09 712.605 1331.77 Q710.684 1334.44 710.684 1339.13 Q710.684 1343.83 712.605 1346.52 Q714.55 1349.18 717.929 1349.18 Q721.309 1349.18 723.23 1346.52 Q725.175 1343.83 725.175 1339.13 Z" fill="#000000" fill-rule="evenodd" fill-opacity="1" /><path clip-path="url(#clip160)" d="M746.702 1329.13 Q743.276 1329.13 741.286 1331.82 Q739.295 1334.48 739.295 1339.13 Q739.295 1343.79 741.262 1346.47 Q743.253 1349.13 746.702 1349.13 Q750.105 1349.13 752.096 1346.45 Q754.086 1343.76 754.086 1339.13 Q754.086 1334.53 752.096 1331.84 Q750.105 1329.13 746.702 1329.13 M746.702 1325.52 Q752.258 1325.52 755.429 1329.13 Q758.6 1332.75 758.6 1339.13 Q758.6 1345.5 755.429 1349.13 Q752.258 1352.75 746.702 1352.75 Q741.124 1352.75 737.952 1349.13 Q734.804 1345.5 734.804 1339.13 Q734.804 1332.75 737.952 1329.13 Q741.124 1325.52 746.702 1325.52 Z" fill="#000000" fill-rule="evenodd" fill-opacity="1" /><path clip-path="url(#clip160)" d="M765.66 1316.06 L769.92 1316.06 L769.92 1352.07 L765.66 1352.07 L765.66 1316.06 Z" fill="#000000" fill-rule="evenodd" fill-opacity="1" /><path clip-path="url(#clip160)" d="M790.614 1339.04 Q785.452 1339.04 783.461 1340.22 Q781.471 1341.4 781.471 1344.25 Q781.471 1346.52 782.952 1347.86 Q784.457 1349.18 787.026 1349.18 Q790.568 1349.18 792.697 1346.68 Q794.85 1344.16 794.85 1339.99 L794.85 1339.04 L790.614 1339.04 M799.109 1337.28 L799.109 1352.07 L794.85 1352.07 L794.85 1348.14 Q793.392 1350.5 791.216 1351.63 Q789.04 1352.75 785.892 1352.75 Q781.91 1352.75 779.549 1350.52 Q777.211 1348.28 777.211 1344.53 Q777.211 1340.15 780.128 1337.93 Q783.068 1335.71 788.878 1335.71 L794.85 1335.71 L794.85 1335.29 Q794.85 1332.35 792.906 1330.76 Q790.984 1329.13 787.489 1329.13 Q785.267 1329.13 783.16 1329.67 Q781.054 1330.2 779.109 1331.26 L779.109 1327.33 Q781.447 1326.43 783.646 1325.99 Q785.846 1325.52 787.929 1325.52 Q793.554 1325.52 796.332 1328.44 Q799.109 1331.36 799.109 1337.28 Z" fill="#000000" fill-rule="evenodd" fill-opacity="1" /><path clip-path="url(#clip160)" d="M812.095 1318.79 L812.095 1326.15 L820.869 1326.15 L820.869 1329.46 L812.095 1329.46 L812.095 1343.53 Q812.095 1346.7 812.952 1347.61 Q813.832 1348.51 816.494 1348.51 L820.869 1348.51 L820.869 1352.07 L816.494 1352.07 Q811.563 1352.07 809.688 1350.25 Q807.813 1348.39 807.813 1343.53 L807.813 1329.46 L804.688 1329.46 L804.688 1326.15 L807.813 1326.15 L807.813 1318.79 L812.095 1318.79 Z" fill="#000000" fill-rule="evenodd" fill-opacity="1" /><path clip-path="url(#clip160)" d="M826.47 1326.15 L830.73 1326.15 L830.73 1352.07 L826.47 1352.07 L826.47 1326.15 M826.47 1316.06 L830.73 1316.06 L830.73 1321.45 L826.47 1321.45 L826.47 1316.06 Z" fill="#000000" fill-rule="evenodd" fill-opacity="1" /><path clip-path="url(#clip160)" d="M849.688 1329.13 Q846.262 1329.13 844.271 1331.82 Q842.28 1334.48 842.28 1339.13 Q842.28 1343.79 844.248 1346.47 Q846.239 1349.13 849.688 1349.13 Q853.091 1349.13 855.081 1346.45 Q857.072 1343.76 857.072 1339.13 Q857.072 1334.53 855.081 1331.84 Q853.091 1329.13 849.688 1329.13 M849.688 1325.52 Q855.243 1325.52 858.415 1329.13 Q861.586 1332.75 861.586 1339.13 Q861.586 1345.5 858.415 1349.13 Q855.243 1352.75 849.688 1352.75 Q844.109 1352.75 840.938 1349.13 Q837.79 1345.5 837.79 1339.13 Q837.79 1332.75 840.938 1329.13 Q844.109 1325.52 849.688 1325.52 Z" fill="#000000" fill-rule="evenodd" fill-opacity="1" /><path clip-path="url(#clip160)" d="M890.197 1336.43 L890.197 1352.07 L885.938 1352.07 L885.938 1336.57 Q885.938 1332.88 884.502 1331.06 Q883.067 1329.23 880.197 1329.23 Q876.748 1329.23 874.757 1331.43 Q872.766 1333.63 872.766 1337.42 L872.766 1352.07 L868.484 1352.07 L868.484 1326.15 L872.766 1326.15 L872.766 1330.18 Q874.294 1327.84 876.354 1326.68 Q878.438 1325.52 881.146 1325.52 Q885.614 1325.52 887.905 1328.3 Q890.197 1331.06 890.197 1336.43 Z" fill="#000000" fill-rule="evenodd" fill-opacity="1" /><polyline clip-path="url(#clip160)" style="stroke:#ac8d18; stroke-linecap:butt; stroke-linejoin:round; stroke-width:4; stroke-opacity:1; fill:none" stroke-dasharray="16, 10" points="
  289.884,1386.63 433.805,1386.63 
  "/>
<path clip-path="url(#clip160)" d="M476.565 1390.97 Q476.565 1386.28 474.62 1383.61 Q472.699 1380.93 469.319 1380.93 Q465.94 1380.93 463.995 1383.61 Q462.074 1386.28 462.074 1390.97 Q462.074 1395.67 463.995 1398.36 Q465.94 1401.02 469.319 1401.02 Q472.699 1401.02 474.62 1398.36 Q476.565 1395.67 476.565 1390.97 M462.074 1381.92 Q463.417 1379.61 465.454 1378.5 Q467.514 1377.36 470.361 1377.36 Q475.083 1377.36 478.023 1381.11 Q480.986 1384.86 480.986 1390.97 Q480.986 1397.09 478.023 1400.84 Q475.083 1404.59 470.361 1404.59 Q467.514 1404.59 465.454 1403.47 Q463.417 1402.34 462.074 1400.03 L462.074 1403.91 L457.792 1403.91 L457.792 1367.9 L462.074 1367.9 L462.074 1381.92 Z" fill="#000000" fill-rule="evenodd" fill-opacity="1" /><path clip-path="url(#clip160)" d="M510.222 1389.89 L510.222 1391.97 L490.639 1391.97 Q490.917 1396.37 493.278 1398.68 Q495.662 1400.97 499.898 1400.97 Q502.352 1400.97 504.643 1400.37 Q506.958 1399.77 509.227 1398.57 L509.227 1402.59 Q506.935 1403.57 504.528 1404.08 Q502.12 1404.59 499.643 1404.59 Q493.44 1404.59 489.805 1400.97 Q486.194 1397.36 486.194 1391.21 Q486.194 1384.84 489.62 1381.11 Q493.069 1377.36 498.903 1377.36 Q504.134 1377.36 507.166 1380.74 Q510.222 1384.1 510.222 1389.89 M505.963 1388.64 Q505.917 1385.14 503.995 1383.06 Q502.097 1380.97 498.949 1380.97 Q495.384 1380.97 493.231 1382.99 Q491.102 1385 490.778 1388.66 L505.963 1388.64 Z" fill="#000000" fill-rule="evenodd" fill-opacity="1" /><path clip-path="url(#clip160)" d="M521.426 1370.63 L521.426 1377.99 L530.199 1377.99 L530.199 1381.3 L521.426 1381.3 L521.426 1395.37 Q521.426 1398.54 522.282 1399.45 Q523.162 1400.35 525.824 1400.35 L530.199 1400.35 L530.199 1403.91 L525.824 1403.91 Q520.893 1403.91 519.018 1402.09 Q517.143 1400.23 517.143 1395.37 L517.143 1381.3 L514.018 1381.3 L514.018 1377.99 L517.143 1377.99 L517.143 1370.63 L521.426 1370.63 Z" fill="#000000" fill-rule="evenodd" fill-opacity="1" /><path clip-path="url(#clip160)" d="M540.014 1370.63 L540.014 1377.99 L548.787 1377.99 L548.787 1381.3 L540.014 1381.3 L540.014 1395.37 Q540.014 1398.54 540.87 1399.45 Q541.75 1400.35 544.412 1400.35 L548.787 1400.35 L548.787 1403.91 L544.412 1403.91 Q539.481 1403.91 537.606 1402.09 Q535.731 1400.23 535.731 1395.37 L535.731 1381.3 L532.606 1381.3 L532.606 1377.99 L535.731 1377.99 L535.731 1370.63 L540.014 1370.63 Z" fill="#000000" fill-rule="evenodd" fill-opacity="1" /><path clip-path="url(#clip160)" d="M576.564 1389.89 L576.564 1391.97 L556.981 1391.97 Q557.259 1396.37 559.62 1398.68 Q562.004 1400.97 566.24 1400.97 Q568.694 1400.97 570.986 1400.37 Q573.3 1399.77 575.569 1398.57 L575.569 1402.59 Q573.277 1403.57 570.87 1404.08 Q568.462 1404.59 565.986 1404.59 Q559.782 1404.59 556.148 1400.97 Q552.537 1397.36 552.537 1391.21 Q552.537 1384.84 555.963 1381.11 Q559.412 1377.36 565.245 1377.36 Q570.476 1377.36 573.509 1380.74 Q576.564 1384.1 576.564 1389.89 M572.305 1388.64 Q572.259 1385.14 570.337 1383.06 Q568.439 1380.97 565.291 1380.97 Q561.726 1380.97 559.574 1382.99 Q557.444 1385 557.12 1388.66 L572.305 1388.64 Z" fill="#000000" fill-rule="evenodd" fill-opacity="1" /><path clip-path="url(#clip160)" d="M598.578 1381.97 Q597.86 1381.55 597.004 1381.37 Q596.171 1381.16 595.152 1381.16 Q591.541 1381.16 589.597 1383.52 Q587.675 1385.86 587.675 1390.26 L587.675 1403.91 L583.393 1403.91 L583.393 1377.99 L587.675 1377.99 L587.675 1382.02 Q589.018 1379.66 591.171 1378.52 Q593.323 1377.36 596.402 1377.36 Q596.842 1377.36 597.374 1377.43 Q597.907 1377.48 598.555 1377.6 L598.578 1381.97 Z" fill="#000000" fill-rule="evenodd" fill-opacity="1" /><path clip-path="url(#clip160)" d="M618.115 1377.99 L622.374 1377.99 L622.374 1403.91 L618.115 1403.91 L618.115 1377.99 M618.115 1367.9 L622.374 1367.9 L622.374 1373.29 L618.115 1373.29 L618.115 1367.9 Z" fill="#000000" fill-rule="evenodd" fill-opacity="1" /><path clip-path="url(#clip160)" d="M652.837 1388.27 L652.837 1403.91 L648.578 1403.91 L648.578 1388.41 Q648.578 1384.72 647.143 1382.9 Q645.707 1381.07 642.837 1381.07 Q639.388 1381.07 637.397 1383.27 Q635.407 1385.47 635.407 1389.26 L635.407 1403.91 L631.124 1403.91 L631.124 1377.99 L635.407 1377.99 L635.407 1382.02 Q636.934 1379.68 638.994 1378.52 Q641.078 1377.36 643.786 1377.36 Q648.254 1377.36 650.545 1380.14 Q652.837 1382.9 652.837 1388.27 Z" fill="#000000" fill-rule="evenodd" fill-opacity="1" /><path clip-path="url(#clip160)" d="M665.545 1370.63 L665.545 1377.99 L674.318 1377.99 L674.318 1381.3 L665.545 1381.3 L665.545 1395.37 Q665.545 1398.54 666.402 1399.45 Q667.281 1400.35 669.943 1400.35 L674.318 1400.35 L674.318 1403.91 L669.943 1403.91 Q665.013 1403.91 663.138 1402.09 Q661.263 1400.23 661.263 1395.37 L661.263 1381.3 L658.138 1381.3 L658.138 1377.99 L661.263 1377.99 L661.263 1370.63 L665.545 1370.63 Z" fill="#000000" fill-rule="evenodd" fill-opacity="1" /><path clip-path="url(#clip160)" d="M702.096 1389.89 L702.096 1391.97 L682.513 1391.97 Q682.791 1396.37 685.152 1398.68 Q687.536 1400.97 691.772 1400.97 Q694.226 1400.97 696.517 1400.37 Q698.832 1399.77 701.101 1398.57 L701.101 1402.59 Q698.809 1403.57 696.402 1404.08 Q693.994 1404.59 691.517 1404.59 Q685.314 1404.59 681.679 1400.97 Q678.068 1397.36 678.068 1391.21 Q678.068 1384.84 681.494 1381.11 Q684.943 1377.36 690.777 1377.36 Q696.008 1377.36 699.04 1380.74 Q702.096 1384.1 702.096 1389.89 M697.837 1388.64 Q697.79 1385.14 695.869 1383.06 Q693.971 1380.97 690.823 1380.97 Q687.258 1380.97 685.105 1382.99 Q682.976 1385 682.652 1388.66 L697.837 1388.64 Z" fill="#000000" fill-rule="evenodd" fill-opacity="1" /><path clip-path="url(#clip160)" d="M724.11 1381.97 Q723.392 1381.55 722.536 1381.37 Q721.702 1381.16 720.684 1381.16 Q717.073 1381.16 715.128 1383.52 Q713.207 1385.86 713.207 1390.26 L713.207 1403.91 L708.925 1403.91 L708.925 1377.99 L713.207 1377.99 L713.207 1382.02 Q714.55 1379.66 716.702 1378.52 Q718.855 1377.36 721.934 1377.36 Q722.374 1377.36 722.906 1377.43 Q723.438 1377.48 724.087 1377.6 L724.11 1381.97 Z" fill="#000000" fill-rule="evenodd" fill-opacity="1" /><path clip-path="url(#clip160)" d="M732.698 1400.03 L732.698 1413.78 L728.415 1413.78 L728.415 1377.99 L732.698 1377.99 L732.698 1381.92 Q734.04 1379.61 736.077 1378.5 Q738.137 1377.36 740.985 1377.36 Q745.707 1377.36 748.647 1381.11 Q751.61 1384.86 751.61 1390.97 Q751.61 1397.09 748.647 1400.84 Q745.707 1404.59 740.985 1404.59 Q738.137 1404.59 736.077 1403.47 Q734.04 1402.34 732.698 1400.03 M747.188 1390.97 Q747.188 1386.28 745.244 1383.61 Q743.323 1380.93 739.943 1380.93 Q736.563 1380.93 734.619 1383.61 Q732.698 1386.28 732.698 1390.97 Q732.698 1395.67 734.619 1398.36 Q736.563 1401.02 739.943 1401.02 Q743.323 1401.02 745.244 1398.36 Q747.188 1395.67 747.188 1390.97 Z" fill="#000000" fill-rule="evenodd" fill-opacity="1" /><path clip-path="url(#clip160)" d="M768.716 1380.97 Q765.29 1380.97 763.299 1383.66 Q761.309 1386.32 761.309 1390.97 Q761.309 1395.63 763.276 1398.31 Q765.267 1400.97 768.716 1400.97 Q772.119 1400.97 774.11 1398.29 Q776.1 1395.6 776.1 1390.97 Q776.1 1386.37 774.11 1383.68 Q772.119 1380.97 768.716 1380.97 M768.716 1377.36 Q774.272 1377.36 777.443 1380.97 Q780.614 1384.59 780.614 1390.97 Q780.614 1397.34 777.443 1400.97 Q774.272 1404.59 768.716 1404.59 Q763.137 1404.59 759.966 1400.97 Q756.818 1397.34 756.818 1390.97 Q756.818 1384.59 759.966 1380.97 Q763.137 1377.36 768.716 1377.36 Z" fill="#000000" fill-rule="evenodd" fill-opacity="1" /><path clip-path="url(#clip160)" d="M787.674 1367.9 L791.933 1367.9 L791.933 1403.91 L787.674 1403.91 L787.674 1367.9 Z" fill="#000000" fill-rule="evenodd" fill-opacity="1" /><path clip-path="url(#clip160)" d="M812.628 1390.88 Q807.466 1390.88 805.475 1392.06 Q803.484 1393.24 803.484 1396.09 Q803.484 1398.36 804.966 1399.7 Q806.47 1401.02 809.04 1401.02 Q812.582 1401.02 814.711 1398.52 Q816.864 1396 816.864 1391.83 L816.864 1390.88 L812.628 1390.88 M821.123 1389.12 L821.123 1403.91 L816.864 1403.91 L816.864 1399.98 Q815.406 1402.34 813.23 1403.47 Q811.054 1404.59 807.906 1404.59 Q803.924 1404.59 801.563 1402.36 Q799.225 1400.12 799.225 1396.37 Q799.225 1391.99 802.142 1389.77 Q805.082 1387.55 810.892 1387.55 L816.864 1387.55 L816.864 1387.13 Q816.864 1384.19 814.919 1382.6 Q812.998 1380.97 809.503 1380.97 Q807.281 1380.97 805.174 1381.51 Q803.068 1382.04 801.123 1383.1 L801.123 1379.17 Q803.461 1378.27 805.66 1377.83 Q807.859 1377.36 809.943 1377.36 Q815.568 1377.36 818.345 1380.28 Q821.123 1383.2 821.123 1389.12 Z" fill="#000000" fill-rule="evenodd" fill-opacity="1" /><path clip-path="url(#clip160)" d="M834.109 1370.63 L834.109 1377.99 L842.882 1377.99 L842.882 1381.3 L834.109 1381.3 L834.109 1395.37 Q834.109 1398.54 834.966 1399.45 Q835.845 1400.35 838.507 1400.35 L842.882 1400.35 L842.882 1403.91 L838.507 1403.91 Q833.577 1403.91 831.702 1402.09 Q829.827 1400.23 829.827 1395.37 L829.827 1381.3 L826.702 1381.3 L826.702 1377.99 L829.827 1377.99 L829.827 1370.63 L834.109 1370.63 Z" fill="#000000" fill-rule="evenodd" fill-opacity="1" /><path clip-path="url(#clip160)" d="M848.484 1377.99 L852.743 1377.99 L852.743 1403.91 L848.484 1403.91 L848.484 1377.99 M848.484 1367.9 L852.743 1367.9 L852.743 1373.29 L848.484 1373.29 L848.484 1367.9 Z" fill="#000000" fill-rule="evenodd" fill-opacity="1" /><path clip-path="url(#clip160)" d="M871.702 1380.97 Q868.276 1380.97 866.285 1383.66 Q864.294 1386.32 864.294 1390.97 Q864.294 1395.63 866.262 1398.31 Q868.253 1400.97 871.702 1400.97 Q875.104 1400.97 877.095 1398.29 Q879.086 1395.6 879.086 1390.97 Q879.086 1386.37 877.095 1383.68 Q875.104 1380.97 871.702 1380.97 M871.702 1377.36 Q877.257 1377.36 880.428 1380.97 Q883.6 1384.59 883.6 1390.97 Q883.6 1397.34 880.428 1400.97 Q877.257 1404.59 871.702 1404.59 Q866.123 1404.59 862.952 1400.97 Q859.803 1397.34 859.803 1390.97 Q859.803 1384.59 862.952 1380.97 Q866.123 1377.36 871.702 1377.36 Z" fill="#000000" fill-rule="evenodd" fill-opacity="1" /><path clip-path="url(#clip160)" d="M912.211 1388.27 L912.211 1403.91 L907.951 1403.91 L907.951 1388.41 Q907.951 1384.72 906.516 1382.9 Q905.081 1381.07 902.211 1381.07 Q898.762 1381.07 896.771 1383.27 Q894.78 1385.47 894.78 1389.26 L894.78 1403.91 L890.498 1403.91 L890.498 1377.99 L894.78 1377.99 L894.78 1382.02 Q896.308 1379.68 898.368 1378.52 Q900.451 1377.36 903.16 1377.36 Q907.627 1377.36 909.919 1380.14 Q912.211 1382.9 912.211 1388.27 Z" fill="#000000" fill-rule="evenodd" fill-opacity="1" /></svg>
